<svg width="50" height="50" viewBox="0 0 50 50" fill="none" xmlns="http://www.w3.org/2000/svg">
<g clip-path="url(#clip0_135_194)">
<path d="M39.9238 4.24989C40.79 4.16231 41.3535 5.40263 41.3535 5.40263L38.5198 7.17943L37.9712 7.52334L35.5948 9.01347L39.0176 12.5593C39.0176 12.5593 40.7065 11.9559 41.1395 11.9119C41.5726 11.8679 42.5692 13.0647 42.5692 13.0647L39.6681 14.656L38.6733 17.7843C38.6733 17.7843 37.3304 17.4877 37.2871 17.0597C37.2437 16.6318 37.4593 14.4472 37.4593 14.4472L33.2572 11.8453L30.878 18.5739C30.878 18.5739 29.5351 18.2773 29.4483 17.4213C29.4157 17.1003 29.535 15.8519 29.6967 14.4166L29.7977 13.5414C30.0537 11.3687 30.3544 9.11179 30.3544 9.11179C30.3544 9.11179 26.9656 6.37914 26.542 6.03788C26.1184 5.69663 25.7374 4.53324 26.3246 3.89739C26.9118 3.26153 28.0664 3.33657 28.49 3.67804L29.4431 4.44652L30.9261 5.64218L32.3025 6.75191C32.3025 6.75191 39.0576 4.33749 39.9238 4.24989Z" fill="#00A2E2" stroke="#1AA3E0" stroke-width="0.497976"/>
<path d="M44.9855 19.4784C45.3601 19.3749 45.7474 19.5944 45.837 19.9724C46.7658 23.894 46.555 28.011 45.2217 31.842C43.8108 35.8955 41.2087 39.4408 37.7543 42.0158C34.2999 44.5909 30.1536 46.0761 25.8558 46.278C21.558 46.4799 17.3081 45.3891 13.66 43.1478C10.0119 40.9064 7.1349 37.6185 5.40396 33.7126C3.67302 29.8066 3.16844 25.4639 3.95601 21.2504C4.74357 17.037 6.78674 13.1482 9.81919 10.091C12.6874 7.19941 16.3147 5.17864 20.2732 4.25848C20.6492 4.17106 21.016 4.41846 21.0894 4.79744V4.79744C21.1627 5.17645 20.9148 5.54346 20.5389 5.63174C16.858 6.49624 13.4855 8.37989 10.8166 11.0706C7.98342 13.9269 6.07449 17.5602 5.33868 21.4968C4.60286 25.4334 5.07428 29.4908 6.6915 33.1401C8.30871 36.7894 10.9967 39.8613 14.4051 41.9554C17.8135 44.0495 21.7842 45.0686 25.7996 44.88C29.815 44.6913 33.6889 43.3037 36.9163 40.8978C40.1437 38.492 42.5749 35.1796 43.893 31.3924C45.1335 27.8283 45.334 23.9992 44.4788 20.3492C44.3901 19.9704 44.6103 19.5821 44.9855 19.4784V19.4784Z" fill="#00A2E2"/>
</g>
<defs>
<clipPath id="clip0_135_194">
<rect width="50" height="50" fill="white"/>
</clipPath>
</defs>
</svg>
