<svg width="49" height="49" viewBox="0 0 49 49" fill="none" xmlns="http://www.w3.org/2000/svg">
<path d="M13.3035 45.0124C13.3835 45.0599 13.4635 45.1055 13.5436 45.1494C14.143 45.4776 14.7546 45.7171 15.3925 45.914C16.0259 46.109 16.6843 46.2622 17.4033 46.4104C18.0429 46.5416 18.7307 46.669 19.5057 46.8075C19.6998 46.8421 19.8989 46.8773 20.105 46.9132C20.7197 47.0202 21.2408 47.0975 21.7067 47.1624C22.5719 47.2797 23.2302 47.3602 24.024 47.4056C24.9121 47.4486 25.9059 47.4621 27.4148 47.2612C27.4357 47.2583 27.4566 47.2554 27.4777 47.2525C28.5737 47.0986 29.6364 46.8928 30.6083 46.6425C31.7276 46.3557 32.7268 46.0101 33.5452 45.6611C34.3902 45.3015 35.0443 44.9418 35.468 44.6533C35.7251 44.478 35.9312 44.3469 36.1216 44.2356C36.7984 43.8238 37.2888 43.7434 38.4376 42.7086C38.4515 42.6957 38.4654 42.6828 38.4793 42.67C39.2803 41.922 39.8456 41.3311 40.4166 40.7252C40.884 40.2318 41.3238 39.7449 41.812 39.1469C41.9698 38.953 42.166 38.698 42.3831 38.3914C42.8674 37.7109 43.4481 36.7702 43.9644 35.7228C44.4363 34.7728 44.8553 33.7363 45.1675 32.7847C45.4739 31.8567 45.6813 31.0122 45.7877 30.4323C45.8364 30.1678 45.888 29.8981 45.9406 29.6264C46.1533 28.5335 46.3779 27.3925 46.539 26.358C46.66 25.5884 46.7476 24.8814 46.7901 24.3117C46.8255 23.8368 46.8529 23.4626 46.8774 23.1751C46.8998 22.902 46.9752 22.9583 46.9794 23.2416C46.9888 23.9858 46.9926 25.0937 46.94 26.4005C46.9387 26.4317 46.9374 26.4631 46.9361 26.4945C46.8624 28.0231 46.7013 28.7055 46.4674 29.7401C46.309 30.4033 46.1157 31.2135 45.7641 32.4466C45.7159 32.6138 45.6674 32.7776 45.619 32.9369C45.2697 34.082 44.9213 35.0438 44.5111 35.9847C44.1061 36.9056 43.6418 37.8082 42.9903 38.7908C42.6582 39.2893 42.279 39.804 41.8196 40.3466C41.531 40.687 41.2662 40.9881 41.019 41.2637C40.312 42.0618 39.7476 42.6982 39.0726 43.3555C38.4785 43.926 37.7915 44.5259 36.7305 45.1914C36.1214 45.57 35.3896 45.9665 34.4591 46.3522C34.282 46.4254 34.1092 46.4947 33.94 46.5607C32.7308 47.03 31.7389 47.3349 30.8625 47.5905C29.6838 47.9272 28.7099 48.1797 27.5545 48.3993C26.5967 48.5766 25.4878 48.73 24.024 48.7696C24.024 48.7696 24.024 48.7696 24.024 48.7696C23.5465 48.7823 23.0162 48.7809 22.4526 48.7571C22.1621 48.7448 21.8694 48.7271 21.5758 48.7038C20.791 48.6417 19.9999 48.539 19.2215 48.395C18.4618 48.2548 17.7141 48.0751 16.9942 47.8614C16.2703 47.6467 15.5748 47.3979 14.9165 47.1242C14.2355 46.8413 13.5951 46.5322 12.9998 46.2103C12.3656 45.8676 11.7657 45.4996 11.2441 45.1497C10.0283 44.3439 9.01885 43.5147 8.29802 42.8844C8.20992 42.8076 8.122 42.7299 8.03244 42.6494C7.12308 41.8328 6.16972 40.8465 5.2667 39.6764C4.4782 38.656 3.72887 37.4942 3.08043 36.2139C2.51078 35.0909 2.01898 33.8769 1.63254 32.6055C1.60825 32.5256 1.58417 32.4453 1.56032 32.3645C1.18696 31.1017 0.875288 29.7318 0.666042 28.3018C0.468993 26.9663 0.361007 25.5529 0.353596 24.1754C0.349267 23.4478 0.370811 22.7075 0.419503 21.9914C0.468334 21.2701 0.544748 20.5601 0.648697 19.868C0.75397 19.1666 0.887537 18.4834 1.04724 17.8249C1.12712 17.4954 1.21343 17.1724 1.3059 16.8557C1.39974 16.5343 1.502 16.2078 1.61256 15.8795C1.81824 15.2685 2.05317 14.6503 2.31589 14.0376C2.56611 13.4534 2.84754 12.8619 3.14288 12.3005C3.83257 10.99 4.7188 9.76106 5.63182 8.72867C6.66221 7.55945 7.75082 6.59308 8.73057 5.83363C9.39169 5.32099 10.0036 4.90149 10.5168 4.57292C11.1827 4.14719 11.7449 3.82612 12.2458 3.55318C13.5868 2.83892 14.469 2.41256 16.0116 1.77491C16.3342 1.64481 16.6865 1.50878 17.0807 1.36756C17.9118 1.06917 18.9183 0.780465 19.9759 0.582812C21.1054 0.368971 22.2945 0.26363 23.3582 0.291196C24.3911 0.337197 24.1534 0.416538 23.1269 0.495245C21.8847 0.60874 20.8143 0.76828 20.0567 0.977817C19.8968 1.02214 19.7503 1.06892 19.6198 1.1181C18.3073 1.63011 17.6846 1.90858 16.2433 2.37411C16.0497 2.43898 15.8432 2.50827 15.6181 2.58553C14.1106 3.11207 13.3646 3.70943 12.6176 4.19711C12.4214 4.32705 12.225 4.45213 12.0147 4.57307C11.2989 5.01245 11.0143 4.9961 9.20452 6.4148C8.5185 6.97916 7.60984 7.77385 6.53395 9.05387C6.46228 9.13977 6.39161 9.22589 6.32257 9.31144C5.3509 10.5179 4.64723 11.6619 4.1075 12.7821C3.82612 13.3794 3.59464 13.9314 3.38911 14.469C3.14777 15.1014 2.95196 15.6932 2.7885 16.2463C2.58835 16.9243 2.43673 17.5439 2.31623 18.1118C2.23159 18.5112 2.16252 18.8852 2.10461 19.2383C2.0645 19.483 2.02044 19.7581 1.97613 20.0608C1.89098 20.6417 1.80538 21.3244 1.74314 22.0837C1.6897 22.7351 1.65369 23.4291 1.64411 24.1753C1.62573 25.4692 1.69643 26.8166 1.88207 28.1294C1.97497 28.7897 2.09564 29.4346 2.23849 30.0421C2.37332 30.6164 2.54672 31.2798 2.77066 31.9916C3.12894 33.1361 3.62433 34.4027 4.24849 35.6189C4.84638 36.7913 5.56309 37.9151 6.30905 38.8818C7.22618 40.0769 8.18528 41.0333 8.92358 41.6721C9.00786 41.7453 9.08819 41.8135 9.16578 41.8781C10.6771 43.1029 11.1907 43.4789 11.9332 44.0699C12.2763 44.3367 12.6572 44.6267 13.3035 45.0124Z" fill="#00A2E2"/>
<path d="M46.3269 6.07749C47.4203 6.28727 47.6656 8.0863 47.6656 8.0863L43.5535 9.31L42.7575 9.54689L39.3088 10.5732L42.2315 16.39C42.2315 16.39 44.5187 16.2445 45.0653 16.3491C45.612 16.4537 46.404 18.3579 46.404 18.3579L42.2759 19.3189L39.9326 22.9584C39.9326 22.9584 38.393 22.079 38.4935 21.5144C38.594 20.9498 39.6429 18.2302 39.6429 18.2302L35.426 13.3334L30.0924 21.0723C30.0924 21.0723 28.5527 20.1929 28.7537 19.0635C28.829 18.6401 29.4236 17.0844 30.1374 15.3052L30.5757 14.221C31.6698 11.5317 32.8491 8.75097 32.8491 8.75097C32.8491 8.75097 29.6761 3.98897 29.2794 3.39414C28.8826 2.79931 28.8334 1.16663 29.7817 0.570021C30.73 -0.0265835 32.1184 0.498803 32.5151 1.09392L33.4075 2.43313L34.7961 4.51683L36.0848 6.45075C36.0848 6.45075 45.2335 5.8677 46.3269 6.07749Z" fill="#00A2E2" stroke="#1AA3E0" stroke-width="0.538828"/>
</svg>
